<?xml version="1.0" encoding="utf-8"?>
<!-- Generator: Adobe Illustrator 24.1.3, SVG Export Plug-In . SVG Version: 6.00 Build 0)  -->
<svg version="1.0" id="Layer_1" xmlns="http://www.w3.org/2000/svg" xmlns:xlink="http://www.w3.org/1999/xlink" x="0px" y="0px"
	 viewBox="0 0 750 630.5" style="enable-background:new 0 0 750 630.5;" xml:space="preserve">
<style type="text/css">
	.st0{fill:#111527;}
	.st1{fill:none;}
	.st2{fill:url(#SVGID_1_);}
	.st3{fill:#0D0808;}
	.st4{display:none;}
	.st5{display:inline;}
	.st6{fill:#141414;}
	.st7{fill:#FF0000;}
	.st8{display:inline;fill:none;}
	.st9{fill:#120B0B;}
	.st10{fill:#242424;}
	.st11{fill:#292929;}
	.st12{fill:#191919;}
	.st13{fill:#1C1C1C;}
	.st14{fill:#171717;}
	.st15{fill:#0F0F0F;}
	.st16{fill:#1A1A1A;}
	.st17{display:inline;fill:#242424;}
	.st18{display:inline;fill:#1C1C1C;}
	.st19{fill:#EBEBEB;}
	.st20{fill:#EDF4F4;}
	.st21{fill:#DBDBDB;}
	.st22{fill:#E3E3E3;}
	.st23{fill:#D6D6D6;}
	.st24{display:inline;fill:#0F0F0F;}
	.st25{fill:#E6E6E6;}
	.st26{fill:#E8E8E8;}
	.st27{fill:#F0F0F0;}
	.st28{fill:#E5E5E5;}
	.st29{fill:#1A1615;}
	.st30{fill:#0A0A0A;stroke:#000000;stroke-width:0.9994;stroke-miterlimit:9.9939;}
	.st31{fill:#FF008E;}
	.st32{display:inline;fill:#F5F5F5;stroke:#FFFFFF;stroke-width:0.9994;stroke-miterlimit:9.9939;}
	.st33{fill:#929493;}
	.st34{fill:#080808;stroke:#140C0C;stroke-width:1.9988;stroke-miterlimit:9.9939;}
	.st35{stroke:#120B0B;stroke-width:1.9988;stroke-miterlimit:9.9939;}
	.st36{fill:#0A0A0A;}
	.st37{fill:#0D0D0D;}
	.st38{display:inline;fill:url(#SVGID_2_);}
	.st39{display:inline;stroke:#120B0B;stroke-width:1.9988;stroke-miterlimit:9.9939;}
	.st40{fill:url(#SVGID_3_);}
	.st41{fill:url(#SVGID_4_);}
	.st42{fill:url(#SVGID_5_);}
	.st43{fill:url(#SVGID_6_);}
	.st44{fill:url(#SVGID_7_);}
	.st45{fill:#152039;}
	.st46{fill:#111627;}
	.st47{fill:#1E2C47;}
	.st48{fill:#FFFFFF;}
</style>
<g id="Layer_1_1_">
	<path class="st0" d="M664.2,214c-6.7-16.7-20.5-20.9-21.8-22c-11.7-10.3-2.5-21.2-19.9-30.7c-18.3-9.9-71.9-37-114.2-31.4
		c-9.2,1.2-27.8,17.6-41.2,17.6c-21.9,0-92.1,0-92.1,0s-70.3,0-92.1,0c-13.4,0-32-16.4-41.2-17.6c-42.2-5.6-95.9,21.4-114.2,31.4
		c-17.5,9.5-8.2,20.3-19.9,30.7c-1.3,1.1-15.1,5.3-21.8,22C23.1,370-1.5,469,0.3,529c2.9,94.4,76.5,101.3,76.5,101.3
		c37-8.6,111.5-129.1,168.4-129.1c31.1,0,129.7,0,129.7,0s98.6,0,129.7,0c57,0,131.4,120.4,168.4,129.1c0,0,73.6-6.9,76.5-101.3
		C751.5,469,726.9,370,664.2,214z"/>
	<g>
		<path class="st1" d="M106.4,192.7c0.5-0.3,0.9-0.5,1.2-0.6C107.2,192.3,106.8,192.5,106.4,192.7z"/>
		<path class="st1" d="M642.4,192c0.2,0.2,0.8,0.4,1.5,0.8C643.4,192.6,642.9,192.3,642.4,192z"/>
		
			<linearGradient id="SVGID_1_" gradientUnits="userSpaceOnUse" x1="-582.7209" y1="855.526" x2="-582.7209" y2="854.526" gradientTransform="matrix(749.5418 0 0 -472.9817 437148.625 404805.4375)">
			<stop  offset="0" style="stop-color:#239CEC"/>
			<stop  offset="1" style="stop-color:#5A07B4"/>
		</linearGradient>
		<path class="st2" d="M664.2,214c-3.3-8.3-8.4-13.5-12.9-16.8c-3-2.2-5.7-3.6-7.4-4.4c-0.8-0.4-1.3-0.6-1.5-0.8
			c-33.5-18-97.4-38.1-117.4-34.3c-26,5-65.5,79.7-88.9,79.7c-15.1,0-60.5,0-60.5,0s-45.4,0-60.5,0c-23.4,0-62.9-74.6-88.9-79.7
			c-19.6-3.8-85.5,16.4-118.7,34.3c-0.2,0.2-0.6,0.4-1.2,0.6c-1.8,0.8-5.1,2.4-8.7,5.3c-4.2,3.3-8.8,8.3-11.9,16
			C23.1,370-1.5,469,0.3,529c2.9,94.4,76.5,101.3,76.5,101.3c37-8.6,111.5-129.1,168.4-129.1c31.1,0,129.7,0,129.7,0s98.6,0,129.7,0
			c57,0,131.4,120.4,168.4,129.1c0,0,73.6-6.9,76.5-101.3C751.5,469,726.9,370,664.2,214L664.2,214z"/>
	</g>
	<line class="st1" x1="107.6" y1="192" x2="107.6" y2="193.6"/>
	<line class="st1" x1="642.4" y1="191.5" x2="642.4" y2="192.5"/>
	<g id="Dpad">
		<g>
			<path d="M277.7,462c-33.4,0-60.6-27.2-60.6-60.6c0-33.4,27.2-60.6,60.6-60.6c33.4,0,60.6,27.2,60.6,60.6
				C338.3,434.8,311.1,462,277.7,462z"/>
			<g>
				<path class="st3" d="M277.7,341.8c32.9,0,59.6,26.7,59.6,59.6c0,32.9-26.7,59.6-59.6,59.6c-32.9,0-59.6-26.7-59.6-59.6
					C218.1,368.6,244.9,341.8,277.7,341.8 M277.7,339.8c-34,0-61.6,27.6-61.6,61.6c0,34,27.6,61.6,61.6,61.6
					c34,0,61.6-27.6,61.6-61.6C339.3,367.4,311.7,339.8,277.7,339.8L277.7,339.8z"/>
			</g>
		</g>
		<g class="st4">
			<g class="st5">
				<path class="st6" d="M291.3,353.5L291.3,353.5c0-5-27.1-5-27.1,0c0,23.8,0,95.9,0,95.9l0,0l0,0c0,5,27.1,5,27.1,0
					C291.3,425.6,291.3,353.5,291.3,353.5L291.3,353.5z"/>
			</g>
			<g class="st5">
				<path class="st6" d="M229.8,387.9L229.8,387.9c-5,0-5,27.1,0,27.1c23.9,0,95.9,0,95.9,0l0,0l0,0c5,0,5-27.1,0-27.1
					C301.8,387.9,229.8,387.9,229.8,387.9L229.8,387.9z"/>
			</g>
		</g>
		<g class="st4">
			<g class="st5">
				<path class="st7" d="M277.7,349.8c6.8,0,13.6,1.2,13.6,3.7v0h0c0,0,0,15.4,0,34.4c13.8,0,26.6,0,34.4,0c5,0,5,27.1,0,27.1l0,0
					l0,0c0,0-15.5,0-34.4,0c0,13.8,0,26.7,0,34.4c0,2.5-6.8,3.7-13.6,3.7c-6.8,0-13.6-1.2-13.6-3.7l0,0l0,0c0,0,0-15.4,0-34.4
					c-13.8,0-26.6,0-34.4,0c-5,0-5-27.1,0-27.1h0c0,0,15.4,0,34.4,0c0-13.8,0-26.7,0-34.4C264.2,351,270.9,349.8,277.7,349.8
					 M277.7,346.2c-3.8,0-7.5,0.4-10.2,1c-5.8,1.4-7,4.2-7,6.3v30.8h-30.8c-2.1,0-4.9,1.2-6.3,7c-0.7,2.7-1,6.4-1,10.2
					c0,3.8,0.4,7.4,1,10.2c1.4,5.8,4.2,7,6.3,7h30.8v30.8v0.8l0.1,0.2c0.4,1.9,2.1,4,6.9,5.2c2.7,0.7,6.3,1,10.2,1
					c3.8,0,7.4-0.4,10.2-1c5.8-1.4,7-4.2,7-6.3v-30.8h30.8h1.5l0.3-0.3c1.7-0.7,3.4-2.5,4.5-6.6c0.7-2.7,1-6.4,1-10.2
					c0-3.8-0.4-7.4-1-10.2c-1.4-5.8-4.2-7-6.3-7h-30.8v-30.8c0-2.1-1.2-4.9-7-6.3C285.2,346.5,281.5,346.2,277.7,346.2L277.7,346.2z
					"/>
			</g>
			<line class="st8" x1="287.7" y1="357.1" x2="294.9" y2="349.9"/>
			<line class="st8" x1="267.8" y1="356.1" x2="261" y2="349.3"/>
			<line class="st8" x1="322.3" y1="391.2" x2="329" y2="384.5"/>
			<line class="st8" x1="322.8" y1="412.1" x2="328.5" y2="417.8"/>
			<line class="st8" x1="286.7" y1="392.4" x2="295.8" y2="383.3"/>
			<line class="st8" x1="286.2" y1="409.9" x2="296.4" y2="420.1"/>
			<line class="st8" x1="287.6" y1="445.7" x2="295" y2="453.1"/>
			<line class="st8" x1="268.6" y1="445" x2="259.8" y2="453.8"/>
			<line class="st8" x1="269.6" y1="409.5" x2="258.7" y2="420.5"/>
			<line class="st8" x1="270.4" y1="394.1" x2="258" y2="381.7"/>
			<line class="st8" x1="233.8" y1="410.9" x2="225.7" y2="419.1"/>
			<line class="st8" x1="233.5" y1="391.6" x2="226.1" y2="384.2"/>
		</g>
		<g>
			<g>
				<path class="st6" d="M277.7,452.6c-7.1,0-12.7-1.3-13-3.1c0,0,0-0.1,0-0.1c0-0.1,0-15.5,0-34.4c0-0.3-0.2-0.5-0.5-0.5h-34.4
					c-1.8,0-3.2-5.7-3.2-13s1.4-13,3.2-13h34.4c0.3,0,0.5-0.2,0.5-0.5v-34.4c0,0,0-0.1,0-0.1l0.1-0.2c0,0,0.1-0.1,0.1-0.1
					c0.5-0.8,2.1-1.5,4.5-2c0.3-0.1,0.6-0.1,0.9-0.2c0.4-0.1,0.7-0.1,1-0.1c0,0,0.1,0,0.2,0c0.3,0,0.6-0.1,0.9-0.1
					c0.3,0,0.7-0.1,1-0.1c0.4,0,0.7-0.1,1-0.1l2.4-0.1c0.4,0,0.7,0,1,0c7.3,0,13.1,1.4,13.1,3.2c0,0.2,0,16,0,34.4
					c0,0.3,0.2,0.5,0.5,0.5h34.4c1.8,0,3.2,5.7,3.2,13s-1.4,13-3.2,13h-34.4c-0.3,0-0.5,0.2-0.5,0.5v34.4c0,0,0,0.1,0,0.2
					C290.5,451.3,284.9,452.6,277.7,452.6z"/>
				<path class="st9" d="M277.7,350.8c8.1,0,12.6,1.6,12.6,2.7c0,0,0,0,0,0v34.4c0,0.6,0.4,1,1,1h34.4c1.1,0,2.7,4.8,2.7,12.5
					c0,7.8-1.6,12.5-2.7,12.5h-34.4c-0.6,0-1,0.4-1,1v34.4c0,0,0,0,0,0.1c-0.2,1.1-4.7,2.7-12.6,2.7c-7.9,0-12.4-1.5-12.5-2.7
					c0,0,0-0.1,0-0.1V415c0-0.6-0.4-1-1-1h-34.4c-1.1,0-2.7-4.8-2.7-12.5s1.6-12.6,2.7-12.6h34.4c0.6,0,1-0.4,1-1v-34.4c0,0,0,0,0,0
					l0,0c0,0,0,0,0,0l0,0c0,0,0-0.1,0-0.1c0,0,0,0,0-0.1c0.2-0.2,0.9-1.1,4.2-1.8c0,0,0,0,0.1,0c0.3-0.1,0.6-0.1,0.8-0.2l0.1,0
					c0.3-0.1,0.6-0.1,0.8-0.1c0,0,0.1,0,0.2,0c0.3,0,0.6-0.1,0.9-0.1c0,0,0,0,0,0c0.3,0,0.7-0.1,1-0.1l0,0c0,0,0,0,0,0
					c0.3,0,0.6-0.1,1-0.1l0.1,0c0.2,0,0.4,0,0.6,0l0.4,0c0.1,0,0.1,0,0.2,0c0.3,0,0.7,0,1,0l0.1,0
					C277,350.8,277.4,350.8,277.7,350.8 M277.7,349.8c-0.3,0-0.7,0-1.1,0c0,0-0.1,0-0.1,0c-0.3,0-0.7,0-1,0c-0.1,0-0.1,0-0.2,0
					c-0.3,0-0.7,0-1,0c0,0-0.1,0-0.1,0c-0.3,0-0.7,0-1,0.1c0,0,0,0,0,0c-0.3,0-0.7,0.1-1,0.1h0c-0.3,0-0.7,0.1-1,0.1c0,0,0,0-0.1,0
					c-0.3,0-0.6,0.1-0.9,0.1c0,0,0,0-0.1,0c-0.3,0.1-0.6,0.1-0.9,0.2c0,0,0,0,0,0c-2.4,0.5-4.2,1.2-4.9,2.2c0,0-0.1,0.1-0.1,0.2
					c0,0,0,0,0,0c0,0.1,0,0.1,0,0.2c0,0,0,0,0,0c0,0,0,0.1,0,0.1c0,0.1,0,0.1,0,0.2c0,7.7,0,20.6,0,34.4c-19,0-34.4,0-34.4,0h0
					c-5,0-5,27.1,0,27.1c7.8,0,20.6,0,34.4,0c0,19,0,34.4,0,34.4l0,0c0,0.1,0,0.2,0,0.2c0.4,2.3,7,3.5,13.5,3.5
					c6.6,0,13.1-1.2,13.5-3.5c0-0.1,0-0.2,0-0.2c0-7.7,0-20.6,0-34.4c18.9,0,34.4,0,34.4,0l0,0c5,0,5-27.1,0-27.1
					c-7.8,0-20.6,0-34.4,0c0-19,0-34.4,0-34.4h0v0C291.3,351,284.5,349.8,277.7,349.8L277.7,349.8z"/>
			</g>
			<path class="st10" d="M264.2,387.9l-3.6-3.6h-30.8c-0.9,0-1.8,0.2-2.8,0.8l2.8,2.8C229.8,387.9,245.2,387.9,264.2,387.9z"/>
			<path class="st11" d="M229.8,387.9L229.8,387.9l-2.8-2.8c-1.4,0.9-2.7,2.7-3.5,6.1c-0.7,2.7-1,6.4-1,10.2c0,3.8,0.4,7.4,1,10.2
				c0.8,3.4,2.2,5.2,3.5,6.1l2.8-2.8C224.8,415,224.8,387.9,229.8,387.9z"/>
			<path class="st10" d="M269.3,350.5C269.3,350.5,269.3,350.5,269.3,350.5c0.3-0.1,0.6-0.1,0.9-0.2c0,0,0,0,0.1,0
				c0.3-0.1,0.6-0.1,0.9-0.1c0,0,0,0,0.1,0c0.3,0,0.7-0.1,1-0.1h0c0.3,0,0.7-0.1,1-0.1c0,0,0,0,0,0c0.3,0,0.7-0.1,1-0.1
				c0,0,0.1,0,0.1,0c0.3,0,0.6,0,1,0c0.1,0,0.1,0,0.2,0c0.3,0,0.7,0,1,0c0,0,0.1,0,0.1,0c0.3,0,0.7,0,1.1,0c6.8,0,13.6,1.2,13.6,3.7
				l2.8-2.8c-0.9-1.4-2.7-2.7-6.1-3.5c-2.7-0.7-6.4-1-10.2-1c-3.8,0-7.5,0.4-10.2,1c-2.9,0.7-4.7,1.8-5.7,3l2.6,2.6
				C265,351.7,266.8,351,269.3,350.5z"/>
			<path class="st12" d="M325.7,387.9l2.8-2.8c-0.9-0.6-1.9-0.8-2.8-0.8h-30.8l-3.6,3.6C305.1,387.9,317.9,387.9,325.7,387.9z"/>
			<path class="st13" d="M291.3,353.5L291.3,353.5c0,0,0,15.4,0,34.4l3.6-3.6l0,0v-30.8c0-0.9-0.2-1.8-0.8-2.8L291.3,353.5
				L291.3,353.5z"/>
			<path class="st11" d="M264.2,353.5c0-0.1,0-0.1,0-0.2c0,0,0-0.1,0-0.1c0,0,0,0,0,0c0-0.1,0-0.1,0-0.2c0,0,0,0,0,0
				c0-0.1,0.1-0.1,0.1-0.2l-2.6-2.6c-1,1.1-1.3,2.3-1.3,3.3v30.8l3.6,3.6C264.2,374.1,264.2,361.2,264.2,353.5z"/>
			<path class="st14" d="M325.7,415L325.7,415c0,0-15.5,0-34.4,0l3.6,3.6h30.8h1.5l0.3-0.3c0.3-0.1,0.6-0.3,0.9-0.5L325.7,415
				L325.7,415z"/>
			<path class="st15" d="M291.3,449.4l2.8,2.8c0.6-0.9,0.8-1.9,0.8-2.8v-30.8l-3.6-3.6C291.3,428.8,291.3,441.7,291.3,449.4z"/>
			<path class="st15" d="M332,391.3c-0.8-3.4-2.2-5.2-3.6-6.1l-2.8,2.8c5,0,5,27.1,0,27.1l2.8,2.8c1.4-0.9,2.7-2.7,3.5-6.1
				c0.7-2.7,1-6.4,1-10.2C333,397.6,332.7,394,332,391.3z"/>
			<path class="st14" d="M291.3,449.6c-0.4,2.3-7,3.5-13.5,3.5s-13.1-1.2-13.5-3.5c0-0.1,0-0.2,0-0.2l-2.8,2.8
				c0.9,1.4,2.7,2.7,6.2,3.5c2.7,0.7,6.3,1,10.2,1c3.8,0,7.4-0.4,10.2-1c3.4-0.8,5.2-2.2,6.1-3.5l-2.8-2.8
				C291.3,449.5,291.3,449.5,291.3,449.6z"/>
			<path class="st13" d="M264.2,449.4L264.2,449.4c0,0,0-15.4,0-34.4l-3.6,3.6v30.8v0.8l0.1,0.2c0.1,0.5,0.3,1.1,0.7,1.7
				L264.2,449.4L264.2,449.4z"/>
			<path class="st16" d="M229.8,415l-2.8,2.8c1,0.6,1.9,0.8,2.8,0.8h30.8l3.6-3.6C250.4,415,237.5,415,229.8,415z"/>
		</g>
		<g class="st4">
			<path class="st17" d="M264.2,387.9l-3.6-3.6L264.2,387.9z"/>
			<polygon class="st18" points="291.3,387.9 294.9,384.3 294.9,384.3 294.9,384.3 			"/>
			<g id="Up" class="st5">
				<g>
					<path class="st19" d="M264.7,387.7v-34.2c0,0,0-0.1,0-0.1l0.1-0.2c0,0,0.1-0.1,0.1-0.1c0.5-0.8,2.1-1.5,4.5-2
						c0.3-0.1,0.6-0.1,0.9-0.2c0.4-0.1,0.7-0.1,1-0.1c0,0,0.1,0,0.2,0c0.3,0,0.6-0.1,0.9-0.1c0.3,0,0.7-0.1,1-0.1
						c0.4,0,0.7-0.1,1-0.1l2.4-0.1c0.4,0,0.7,0,1,0c7.3,0,13.1,1.4,13.1,3.2c0,0.2,0,15.9,0,34.2l-13.1,13L264.7,387.7z"/>
					<path class="st20" d="M277.7,350.8c8.1,0,12.6,1.6,12.6,2.7c0,0,0,0,0,0v33.9L277.7,400l-12.6-12.5v-34c0,0,0,0,0,0l0,0
						c0,0,0,0,0,0l0,0c0,0,0-0.1,0-0.1c0,0,0,0,0-0.1c0.2-0.2,0.9-1.1,4.2-1.8c0,0,0,0,0.1,0c0.3-0.1,0.6-0.1,0.8-0.2l0.1,0
						c0.3-0.1,0.6-0.1,0.8-0.1c0,0,0.1,0,0.2,0c0.3,0,0.6-0.1,0.9-0.1c0,0,0,0,0,0c0.3,0,0.7-0.1,1-0.1l0,0c0,0,0,0,0,0
						c0.3,0,0.6-0.1,1-0.1l0.1,0c0.2,0,0.4,0,0.6,0l0.4,0c0.1,0,0.1,0,0.2,0c0.3,0,0.7,0,1,0l0.1,0
						C277,350.8,277.4,350.8,277.7,350.8 M277.7,349.8c-0.3,0-0.7,0-1.1,0c0,0-0.1,0-0.1,0c-0.3,0-0.7,0-1,0c-0.1,0-0.1,0-0.2,0
						c-0.3,0-0.7,0-1,0c0,0-0.1,0-0.1,0c-0.3,0-0.7,0-1,0.1c0,0,0,0,0,0c-0.3,0-0.7,0.1-1,0.1h0c-0.3,0-0.7,0.1-1,0.1c0,0,0,0-0.1,0
						c-0.3,0-0.6,0.1-0.9,0.1c0,0,0,0-0.1,0c-0.3,0.1-0.6,0.1-0.9,0.2c0,0,0,0,0,0c-2.4,0.5-4.2,1.2-4.9,2.2c0,0-0.1,0.1-0.1,0.2
						c0,0,0,0,0,0c0,0.1,0,0.1,0,0.2c0,0,0,0,0,0c0,0,0,0.1,0,0.1c0,0.1,0,0.1,0,0.2c0,7.7,0,20.6,0,34.4l13.6,13.5l13.6-13.5
						c0-19,0-34.4,0-34.4h0v0C291.3,351,284.5,349.8,277.7,349.8L277.7,349.8z"/>
				</g>
				<path class="st21" d="M269.3,350.5C269.3,350.5,269.3,350.5,269.3,350.5c0.3-0.1,0.6-0.1,0.9-0.2c0,0,0,0,0.1,0
					c0.3-0.1,0.6-0.1,0.9-0.1c0,0,0,0,0.1,0c0.3,0,0.7-0.1,1-0.1h0c0.3,0,0.7-0.1,1-0.1c0,0,0,0,0,0c0.3,0,0.7-0.1,1-0.1
					c0,0,0.1,0,0.1,0c0.3,0,0.6,0,1,0c0.1,0,0.1,0,0.2,0c0.3,0,0.7,0,1,0c0,0,0.1,0,0.1,0c0.3,0,0.7,0,1.1,0
					c6.8,0,13.6,1.2,13.6,3.7l2.8-2.8c-0.9-1.4-2.7-2.7-6.1-3.5c-2.7-0.7-6.4-1-10.2-1c-3.8,0-7.5,0.4-10.2,1
					c-2.9,0.7-4.7,1.8-5.7,3l2.6,2.6C265,351.7,266.8,351,269.3,350.5z"/>
				<path class="st22" d="M291.3,353.5L291.3,353.5c0,0,0,15.4,0,34.4l3.6-3.6v-30.8c0-0.9-0.2-1.8-0.8-2.8L291.3,353.5L291.3,353.5
					z"/>
				<path class="st23" d="M264.2,353.5c0-0.1,0-0.1,0-0.2c0,0,0-0.1,0-0.1c0,0,0,0,0,0c0-0.1,0-0.1,0-0.2c0,0,0,0,0,0
					c0-0.1,0.1-0.1,0.1-0.2l-2.6-2.6c-1,1.1-1.3,2.3-1.3,3.3v30.8l3.6,3.6C264.2,374.1,264.2,361.2,264.2,353.5z"/>
			</g>
			<polygon class="st24" points="294.9,418.6 291.3,415 291.3,415 			"/>
			<g id="Right" class="st5">
				<g>
					<path class="st19" d="M291.5,414.5l-13.1-13.1l13.1-13h34.2c1.8,0,3.2,5.7,3.2,13s-1.4,13-3.2,13H291.5z"/>
					<path class="st20" d="M325.7,388.9c1.1,0,2.7,4.8,2.7,12.5c0,7.8-1.6,12.5-2.7,12.5h-34l-12.6-12.6l12.6-12.5H325.7
						 M325.7,387.9c-7.8,0-20.6,0-34.4,0l-13.6,13.5l13.6,13.6c18.9,0,34.4,0,34.4,0l0,0C330.6,415,330.6,387.9,325.7,387.9
						L325.7,387.9z"/>
				</g>
				<path class="st25" d="M325.7,387.9l2.8-2.8c-0.9-0.6-1.9-0.8-2.8-0.8h-30.8l-3.6,3.6C305.1,387.9,317.9,387.9,325.7,387.9z"/>
				<path class="st26" d="M325.7,415L325.7,415c0,0-15.5,0-34.4,0l3.6,3.6h30.8h1.5l0.3-0.3c0.3-0.1,0.6-0.3,0.9-0.5L325.7,415
					L325.7,415z"/>
				<path class="st27" d="M328.4,385.1l-2.8,2.8c5,0,5,27.1,0,27.1l2.8,2.8c1.4-0.9,2.7-2.7,3.5-6.1c0.7-2.7,1-6.4,1-10.2
					c0-3.8-0.4-7.4-1-10.2C331.1,387.9,329.8,386,328.4,385.1z"/>
			</g>
			<g id="Down" class="st5">
				<g>
					<path class="st19" d="M277.7,452.6c-7.1,0-12.7-1.3-13-3.1c0,0,0-0.1,0-0.1c0-0.1,0-15.4,0-34.2l13.1-13.1l13.1,13.1v34.2
						c0,0,0,0.1,0,0.2C290.5,451.3,284.9,452.6,277.7,452.6z"/>
					<path class="st20" d="M277.7,402.8l12.6,12.6v34c0,0,0,0,0,0.1c-0.2,1.1-4.7,2.7-12.6,2.7c-7.9,0-12.4-1.5-12.5-2.7
						c0,0,0-0.1,0-0.1v-34L277.7,402.8 M277.7,401.4L264.2,415c0,19,0,34.4,0,34.4l0,0c0,0.1,0,0.2,0,0.2c0.4,2.3,7,3.5,13.5,3.5
						c6.6,0,13.1-1.2,13.5-3.5c0-0.1,0-0.2,0-0.2c0-7.7,0-20.6,0-34.4L277.7,401.4L277.7,401.4z"/>
				</g>
				<path class="st27" d="M291.3,449.4l2.8,2.8c0.6-0.9,0.8-1.9,0.8-2.8v-30.8l-3.6-3.6C291.3,428.8,291.3,441.7,291.3,449.4z"/>
				<path class="st26" d="M291.3,449.6c-0.4,2.3-7,3.5-13.5,3.5s-13.1-1.2-13.5-3.5c0-0.1,0-0.2,0-0.2l-2.8,2.8
					c0.9,1.4,2.7,2.7,6.2,3.5c2.7,0.7,6.3,1,10.2,1c3.8,0,7.4-0.4,10.2-1c3.4-0.8,5.2-2.2,6.1-3.5l-2.8-2.8
					C291.3,449.5,291.3,449.5,291.3,449.6z"/>
				<path class="st22" d="M264.2,449.4L264.2,449.4c0,0,0-15.4,0-34.4l-3.6,3.6v30.8v0.8l0.1,0.2c0.1,0.5,0.3,1.1,0.7,1.7
					L264.2,449.4L264.2,449.4z"/>
			</g>
			<g id="left" class="st5">
				<g>
					<path class="st19" d="M229.8,414.5c-1.8,0-3.2-5.7-3.2-13s1.4-13,3.2-13H264l13.1,13L264,414.5H229.8z"/>
					<path class="st20" d="M263.8,388.9l12.6,12.5L263.8,414h-34c-1.1,0-2.7-4.8-2.7-12.5s1.6-12.6,2.7-12.6L263.8,388.9
						 M264.2,387.9c-19,0-34.4,0-34.4,0h0c-5,0-5,27.1,0,27.1c7.8,0,20.6,0,34.4,0l13.6-13.6L264.2,387.9L264.2,387.9z"/>
				</g>
				<path class="st21" d="M264.2,387.9l-3.6-3.6h-30.8c-0.9,0-1.8,0.2-2.8,0.8l2.8,2.8C229.8,387.9,245.2,387.9,264.2,387.9z"/>
				<path class="st23" d="M229.8,387.9L229.8,387.9l-2.8-2.8c-1.4,0.9-2.7,2.7-3.5,6.1c-0.7,2.7-1,6.4-1,10.2c0,3.8,0.4,7.4,1,10.2
					c0.8,3.4,2.2,5.2,3.5,6.1l2.8-2.8C224.8,415,224.8,387.9,229.8,387.9z"/>
				<path class="st28" d="M229.8,415l-2.8,2.8c1,0.6,1.9,0.8,2.8,0.8h30.8l3.6-3.6C250.4,415,237.5,415,229.8,415z"/>
			</g>
		</g>
	</g>
	<g id="Menu_Key">
		<g>
			<path class="st29" d="M448.9,280.4c0,10.4-8.4,18.8-18.8,18.8c-10.4,0-18.8-8.4-18.8-18.8c0-10.4,8.4-18.8,18.8-18.8
				C440.5,261.6,448.9,270,448.9,280.4z"/>
		</g>
		<g>
			<path class="st30" d="M446.2,280.4c0,8.9-7.2,16.1-16.1,16.1c-8.9,0-16.1-7.2-16.1-16.1c0-8.9,7.2-16.1,16.1-16.1
				C439,264.3,446.2,271.5,446.2,280.4z"/>
			<g>
				<rect x="422.9" y="275.8" class="st31" width="14.4" height="1.6"/>
				<rect x="422.9" y="279.7" class="st31" width="14.4" height="1.6"/>
				<rect x="422.9" y="283.5" class="st31" width="14.4" height="1.5"/>
			</g>
		</g>
		<g id="Menu_Pressed" class="st4">
			<path class="st32" d="M446.2,280.4c0,8.9-7.2,16.1-16.1,16.1c-8.9,0-16.1-7.2-16.1-16.1c0-8.9,7.2-16.1,16.1-16.1
				C439,264.3,446.2,271.5,446.2,280.4z"/>
			<g class="st5">
				<rect x="422.9" y="275.8" class="st33" width="14.4" height="1.6"/>
				<rect x="422.9" y="279.7" class="st33" width="14.4" height="1.6"/>
				<rect x="422.9" y="283.5" class="st33" width="14.4" height="1.5"/>
			</g>
		</g>
	</g>
	<g id="Switcher_Key">
		<g>
			<path class="st29" d="M341,280.4c0,10.4-8.4,18.8-18.8,18.8c-10.4,0-18.8-8.4-18.8-18.8c0-10.4,8.4-18.8,18.8-18.8
				C332.5,261.6,341,270,341,280.4z"/>
		</g>
		<g>
			<path class="st30" d="M338.2,280.4c0,8.9-7.2,16.1-16.1,16.1c-8.9,0-16.1-7.2-16.1-16.1c0-8.9,7.2-16.1,16.1-16.1
				C331,264.3,338.2,271.5,338.2,280.4z"/>
			<g>
				<polygon class="st31" points="319.6,280.3 316.6,280.3 316.6,276.5 322.1,276.5 322.1,277.8 323.9,277.8 323.9,274.8 315,274.8 
					315,282.2 319.6,282.2 				"/>
				<path class="st31" d="M320.4,278.4v7.6h9v-7.6H320.4z M327.5,284.2h-5.5v-3.9h5.5V284.2z"/>
			</g>
		</g>
	</g>
	<g id="Left_Stick">
		<g>
			<path class="st34" d="M185.6,351.5c-37.3,0-67.7-30.3-67.7-67.6s30.3-67.6,67.7-67.6c37.3,0,67.7,30.3,67.7,67.6
				S222.9,351.5,185.6,351.5z"/>
		</g>
		<path class="st35" d="M241.7,279.9c0,31-25.1,56-56.1,56c-31,0-56.1-25.1-56.1-56c0-31,25.1-56.1,56.1-56.1
			C216.6,223.8,241.7,248.9,241.7,279.9z"/>
	</g>
	<g id="Right_Stick">
		<g>
			<path class="st34" d="M473,465.4c-37.3,0-67.6-30.3-67.6-67.6c0-37.3,30.3-67.7,67.6-67.7c37.3,0,67.7,30.4,67.7,67.7
				C540.6,435,510.3,465.4,473,465.4z"/>
		</g>
		<path class="st35" d="M529.1,393.8c0,31-25.1,56.1-56.1,56.1c-31,0-56-25.1-56-56.1c0-31,25.1-56.1,56-56.1
			C504,337.7,529.1,362.8,529.1,393.8z"/>
	</g>
	<g id="Button_Base">
		<g id="A">
			<path class="st36" d="M566.6,355.2c-13.9,0-25.2-11.3-25.2-25.2c0-13.9,11.3-25.2,25.2-25.2c13.9,0,25.2,11.3,25.2,25.2
				C591.8,343.9,580.5,355.2,566.6,355.2z"/>
			<path class="st29" d="M566.6,306.4c13.1,0,23.7,10.6,23.7,23.7c0,13.1-10.6,23.7-23.7,23.7c-13.1,0-23.7-10.6-23.7-23.7
				C543,317,553.6,306.4,566.6,306.4 M566.6,303.4c-14.7,0-26.7,12-26.7,26.7c0,14.7,12,26.7,26.7,26.7c14.7,0,26.7-12,26.7-26.7
				C593.3,315.4,581.4,303.4,566.6,303.4L566.6,303.4z"/>
		</g>
		<g id="Y">
			<path class="st36" d="M566.6,254.2c-13.9,0-25.2-11.3-25.2-25.2c0-13.9,11.3-25.2,25.2-25.2c13.9,0,25.2,11.3,25.2,25.2
				C591.8,242.9,580.5,254.2,566.6,254.2z"/>
			<path class="st29" d="M566.6,205.4c13.1,0,23.7,10.6,23.7,23.7c0,13.1-10.6,23.7-23.7,23.7c-13.1,0-23.7-10.6-23.7-23.7
				C543,216,553.6,205.4,566.6,205.4 M566.6,202.4c-14.7,0-26.7,12-26.7,26.7c0,14.7,12,26.7,26.7,26.7c14.7,0,26.7-12,26.7-26.7
				C593.3,214.3,581.4,202.4,566.6,202.4L566.6,202.4z"/>
		</g>
		<g id="B">
			<path class="st36" d="M617.2,304.7c-13.9,0-25.2-11.3-25.2-25.2c0-13.9,11.3-25.2,25.2-25.2c13.9,0,25.2,11.3,25.2,25.2
				C642.3,293.4,631,304.7,617.2,304.7z"/>
			<path class="st29" d="M617.2,255.9c13.1,0,23.7,10.6,23.7,23.7c0,13.1-10.6,23.7-23.7,23.7c-13.1,0-23.7-10.6-23.7-23.7
				C593.5,266.5,604.1,255.9,617.2,255.9 M617.2,252.9c-14.7,0-26.7,12-26.7,26.7c0,14.7,12,26.7,26.7,26.7
				c14.7,0,26.7-12,26.7-26.7C643.8,264.8,631.9,252.9,617.2,252.9L617.2,252.9z"/>
		</g>
		<g id="X">
			<path class="st36" d="M516.1,304.7c-13.9,0-25.2-11.3-25.2-25.2c0-13.9,11.3-25.2,25.2-25.2c13.9,0,25.2,11.3,25.2,25.2
				C541.3,293.4,530,304.7,516.1,304.7z"/>
			<path class="st29" d="M516.1,255.9c13.1,0,23.7,10.6,23.7,23.7c0,13.1-10.6,23.7-23.7,23.7c-13.1,0-23.7-10.6-23.7-23.7
				C492.5,266.5,503.1,255.9,516.1,255.9 M516.1,252.9c-14.7,0-26.7,12-26.7,26.7c0,14.7,12,26.7,26.7,26.7
				c14.7,0,26.7-12,26.7-26.7C542.8,264.8,530.8,252.9,516.1,252.9L516.1,252.9z"/>
		</g>
	</g>
	<g>
		<g>
			<path class="st16" d="M375.6,156.6c0,0-88.9-1.1-100.5-3l-16.4,30.5c20.2,23.3,41.6,53.3,56.4,53.3c15.1,0,60.5,0,60.5,0
				s45.4,0,60.5,0c14.9,0,36.2-30,56.4-53.3l-16.4-30.5C464.5,155.5,375.6,156.6,375.6,156.6z"/>
			<path class="st37" d="M476.1,153.6l-3.6-6.8c-1.9,0.5-3.7,0.7-5.4,0.7c-21.9,0-92.1,0-92.1,0s-70.3,0-92.1,0
				c-1.4,0-2.8-0.2-4.3-0.5l-3.5,6.5c11.6,1.9,100.5,3,100.5,3S464.5,155.5,476.1,153.6z"/>
		</g>
		<g id="RB_1_">
			<path class="st16" d="M642.4,192c-9-7.9-5.6-16.2-11.5-23.8c0.2,0.3,0.5,0.7,0.7,1c0,0-96.5-42-120.7-34.5
				c-15.6,4.9-27.2,15.3-32.8,18.2l15.9,29.6c11.2-12.7,21.9-23,31-24.7C545,153.9,608.9,174,642.4,192
				C642.4,192,642.4,192,642.4,192z"/>
			<path class="st37" d="M510.9,134.7c24.3-7.6,120.7,34.4,120.7,34.5c-0.2-0.3-0.5-0.7-0.7-1c0,0-0.1-0.1-0.1-0.1
				c-0.1-0.1-0.2-0.2-0.3-0.4c0-0.1-0.1-0.1-0.1-0.2c-0.1-0.1-0.2-0.2-0.3-0.3c-0.1-0.1-0.1-0.1-0.2-0.2c-0.1-0.1-0.2-0.2-0.3-0.3
				c-0.1-0.1-0.1-0.1-0.2-0.2c-0.1-0.1-0.2-0.2-0.3-0.3c-0.1-0.1-0.1-0.1-0.2-0.2c-0.1-0.1-0.2-0.2-0.3-0.3
				c-0.1-0.1-0.2-0.1-0.2-0.2c-0.1-0.1-0.2-0.2-0.3-0.3c-0.1-0.1-0.1-0.1-0.2-0.2c-0.1-0.1-0.2-0.2-0.3-0.3
				c-0.1-0.1-0.2-0.1-0.3-0.2c-0.1-0.1-0.2-0.2-0.3-0.3c-0.1-0.1-0.2-0.1-0.3-0.2c-0.1-0.1-0.2-0.2-0.4-0.3c-0.1,0-0.2-0.1-0.3-0.2
				c-0.1-0.1-0.3-0.2-0.4-0.3c-0.1-0.1-0.2-0.1-0.3-0.2c-0.1-0.1-0.3-0.2-0.4-0.3c-0.1-0.1-0.2-0.1-0.3-0.2
				c-0.2-0.1-0.3-0.2-0.5-0.3c-0.1-0.1-0.2-0.1-0.3-0.2c-0.2-0.1-0.4-0.2-0.5-0.3c-0.1-0.1-0.2-0.1-0.3-0.2
				c-0.3-0.2-0.6-0.3-0.8-0.5c-18.3-9.9-71.9-37-114.2-31.4c-7.6,1-21.6,12.3-33.8,16.3l3.6,6.7C483.7,150,495.3,139.6,510.9,134.7z
				"/>
		</g>
		<g id="LB_1_">
			<path class="st37" d="M241.7,130c-42.2-5.6-95.9,21.4-114.2,31.4c-0.3,0.2-0.6,0.3-0.8,0.5c-0.1,0.1-0.2,0.1-0.2,0.2
				c-0.2,0.1-0.4,0.2-0.5,0.3c-0.1,0.1-0.2,0.1-0.3,0.2c-0.1,0.1-0.3,0.2-0.5,0.3c-0.1,0-0.2,0.1-0.3,0.2c-0.1,0.1-0.3,0.2-0.4,0.3
				c-0.1,0.1-0.2,0.1-0.3,0.2c-0.1,0.1-0.3,0.2-0.4,0.3c-0.1,0.1-0.2,0.1-0.3,0.2c-0.1,0.1-0.3,0.2-0.4,0.3
				c-0.1,0.1-0.2,0.1-0.2,0.2c-0.1,0.1-0.2,0.2-0.4,0.3c-0.1,0.1-0.1,0.1-0.2,0.2c-0.1,0.1-0.2,0.2-0.3,0.3
				c-0.1,0.1-0.1,0.1-0.2,0.2c-0.1,0.1-0.2,0.2-0.3,0.3c-0.1,0.1-0.1,0.1-0.2,0.2c-0.1,0.1-0.2,0.2-0.3,0.3c-0.1,0-0.1,0.1-0.2,0.2
				c-0.1,0.1-0.2,0.2-0.3,0.3c0,0.1-0.1,0.1-0.1,0.2c-0.1,0.1-0.2,0.2-0.3,0.3c0,0-0.1,0.1-0.1,0.1c-0.1,0.1-0.2,0.3-0.3,0.4
				c0,0-0.1,0.1-0.1,0.1c-0.1,0.1-0.2,0.3-0.3,0.4c0,0,0,0.1-0.1,0.1c-0.1,0.1-0.2,0.3-0.3,0.4c0,0,0,0,0,0
				c-0.1,0.2-0.2,0.3-0.3,0.5c0,0,97.6-41.9,121.9-34.4c15.5,4.9,27.2,15.3,32.8,18.2l3.4-6.3C264.2,143,249.5,131,241.7,130z"/>
			<g>
				<path class="st16" d="M273.6,153.2c0.2,0.1,0.3,0.1,0.5,0.2C273.9,153.3,273.8,153.3,273.6,153.2z"/>
				<path class="st16" d="M273.2,152.9c-5.6-2.9-17.3-13.3-32.8-18.2c-24.2-7.5-121.2,34.1-121.9,34.4c-5,7.4-2.2,15.3-10.8,23
					c0,0,0,0-0.1,0c33.1-17.9,99.1-38.1,118.7-34.3c9.1,1.8,19.9,12.1,31.1,24.7L273.2,152.9C273.2,152.9,273.2,152.9,273.2,152.9z"
					/>
				<path d="M273.2,152.9c0.2,0.1,0.3,0.2,0.5,0.2C273.5,153.1,273.3,153,273.2,152.9z"/>
			</g>
			<path d="M258,183.3c0.2,0.3,0.5,0.6,0.7,0.8l16.4-30.5l3.5-6.5c-0.3-0.1-0.7-0.1-1-0.2c-0.3-0.1-0.7-0.2-1-0.3l-3.4,6.3
				l-15.8,29.6C257.5,182.8,257.8,183,258,183.3L258,183.3"/>
		</g>
		<path d="M478.1,152.9l-3.6-6.7c-0.3,0.1-0.7,0.2-1,0.3c-0.3,0.1-0.7,0.2-1,0.3l3.6,6.8l16.4,30.5c0.2-0.3,0.5-0.5,0.7-0.8
			c0.2-0.3,0.5-0.5,0.7-0.8L478.1,152.9z"/>
		<path class="st16" d="M357,169.4L357,169.4L357,169.4z"/>
	</g>
	<g>
		<g>
			<g>
				
					<image style="overflow:visible;" width="138" height="138" xlink:href="53624989.png"  transform="matrix(1 0 0 1 306 127.455)">
				</image>
			</g>
			<g>
				<path class="st31" d="M407.6,196.5c0,18-14.6,32.6-32.6,32.6c-18,0-32.6-14.6-32.6-32.6c0-18,14.6-32.6,32.6-32.6
					C393,163.9,407.6,178.5,407.6,196.5z"/>
			</g>
		</g>
		<path class="st16" d="M384,182.1c0,0,8.9-9.4,13.8-8.9c0,0,0,0,0,0c-0.7-0.7-1.5-1.4-2.3-2c0,0,0,0,0,0c-0.4-0.3-0.8-0.6-1.2-0.9
			c0,0,0,0-0.1-0.1c-0.4-0.3-0.8-0.5-1.2-0.8c0,0,0,0,0,0c-0.4-0.1-0.8-0.1-1.2-0.2c-5.2-0.5-16.9,4.5-16.9,4.5s-11.6-5-16.9-4.5
			c-0.4,0-0.8,0.1-1.2,0.2c0,0,0,0,0,0c-0.4,0.3-0.8,0.6-1.2,0.8c0,0,0,0-0.1,0c-0.4,0.3-0.8,0.6-1.2,0.9c0,0,0,0,0,0
			c-0.8,0.6-1.5,1.3-2.3,2v0c4.8-0.6,13.8,8.9,13.8,8.9s-17.7,20.9-17,34.1c1.1,1.4,2.3,2.8,3.6,4c-0.4-12,22.3-30.1,22.3-30.1
			s22.8,18.1,22.3,30.1c1.3-1.2,2.5-2.6,3.6-4c0,0,0,0,0,0C401.7,203,384,182.1,384,182.1z"/>
	</g>
	<g>
		<g>
			<path class="st16" d="M549,5.7c-0.4-0.3-0.8-0.6-1.2-0.9l-2.3,109.9l53.2,7.2C586.6,5.2,555.7,10.9,549,5.7z"/>
			<path class="st6" d="M522,0.3c-10.8,0.4-12.1,11.4-12.2,15.2v1.2c0,0,2.9,40.7,0,93c9.9,2.3,38.5,5.3,38.5,5.3s0-20.9,0.7-50.6
				c0.8-37.5-1.2-59.8-1.2-59.8C541.4,0.3,534.2-0.1,522,0.3z"/>
		</g>
		<g>
			<path class="st16" d="M201.1,5.7c0.4-0.3,0.8-0.6,1.2-0.9l2.3,109.9l-53.2,7.2C163.5,5.2,194.4,10.9,201.1,5.7z"/>
			<path class="st6" d="M228.1,0.3c10.8,0.4,12.1,11.4,12.2,15.2v1.2c0,0-2.9,40.7,0,93c-9.9,2.3-38.5,5.3-38.5,5.3
				s-0.1-20.9-0.7-50.6c-0.8-37.5,1.2-59.8,1.2-59.8C208.7,0.3,215.9-0.1,228.1,0.3z"/>
		</g>
	</g>
</g>
<g class="st4">
	<linearGradient id="SVGID_2_" gradientUnits="userSpaceOnUse" x1="374.9969" y1="157.2821" x2="374.9969" y2="630.26">
		<stop  offset="0" style="stop-color:#239CEC"/>
		<stop  offset="1" style="stop-color:#5A07B4"/>
	</linearGradient>
	<path class="st38" d="M749.7,529c-2.9,94.4-76.5,101.3-76.5,101.3c-37-8.6-111.5-129-168.4-129c-31.1,0-129.7,0-129.7,0
		s-98.6,0-129.7,0c-56.9,0-131.4,120.4-168.4,129c0,0-73.6-6.9-76.5-101.3c-1.8-60,22.8-159,85.5-315c3.1-7.7,7.7-12.7,11.9-16
		c3.6-2.8,6.9-4.4,8.7-5.3c0.4-0.2,0.8-0.4,1.2-0.6c33.1-17.9,99.1-38.1,118.7-34.3c26,5,65.5,79.7,88.9,79.7c15.1,0,60.5,0,60.5,0
		s45.4,0,60.5,0c23.4,0,62.9-74.6,88.9-79.7c20-3.9,83.9,16.3,117.4,34.3h0c0.4,0.2,0.8,0.5,1.3,0.7c0.1,0.1,0.2,0.1,0.3,0.1
		c1.7,0.8,4.4,2.1,7.4,4.4c4.4,3.3,9.5,8.5,12.9,16.8C726.9,370,751.5,469,749.7,529z"/>
	<path class="st5" d="M339.3,401.4c0,34-27.6,61.6-61.6,61.6c-34,0-61.6-27.6-61.6-61.6c0-34,27.6-61.6,61.6-61.6
		C311.8,339.8,339.3,367.4,339.3,401.4z"/>
	<path class="st5" d="M341.5,280.4c0,10.6-8.7,19.3-19.3,19.3c-10.6,0-19.3-8.7-19.3-19.3s8.7-19.3,19.3-19.3
		C332.8,261.1,341.5,269.8,341.5,280.4z"/>
	<path class="st39" d="M254.3,283.8c0,37.8-30.8,68.6-68.7,68.6c-37.9,0-68.7-30.8-68.7-68.6c0-37.9,30.8-68.6,68.7-68.6
		C223.5,215.2,254.3,246,254.3,283.8z"/>
	<path class="st5" d="M631.6,169.2c0,0,0-0.1-0.1-0.1c0,0-0.1-0.1-0.1-0.1c-0.2-0.2-0.4-0.5-0.5-0.7c0,0-0.1-0.1-0.1-0.1
		c-0.1-0.1-0.2-0.2-0.3-0.4c0-0.1-0.1-0.1-0.1-0.2c-0.1-0.1-0.2-0.2-0.3-0.3c0,0-0.1-0.1-0.2-0.2c-0.1-0.1-0.2-0.2-0.3-0.3
		c-0.1-0.1-0.1-0.1-0.2-0.2c-0.1-0.1-0.2-0.2-0.3-0.3c-0.1-0.1-0.1-0.1-0.2-0.2c-0.1-0.1-0.2-0.2-0.3-0.3c-0.1-0.1-0.2-0.1-0.2-0.2
		c-0.1-0.1-0.2-0.2-0.3-0.3c-0.1-0.1-0.1-0.1-0.2-0.2c-0.1-0.1-0.2-0.2-0.3-0.3c-0.1-0.1-0.2-0.1-0.3-0.2c-0.1-0.1-0.2-0.2-0.3-0.3
		c-0.1-0.1-0.2-0.1-0.3-0.2c-0.1-0.1-0.2-0.2-0.4-0.3c-0.1,0-0.2-0.1-0.3-0.2c-0.1-0.1-0.3-0.2-0.4-0.3c-0.1-0.1-0.2-0.1-0.3-0.2
		c-0.1-0.1-0.3-0.2-0.4-0.3c-0.1-0.1-0.2-0.1-0.3-0.2c-0.2-0.1-0.3-0.2-0.5-0.3c-0.1-0.1-0.2-0.1-0.3-0.2c-0.2-0.1-0.4-0.2-0.5-0.3
		c-0.1,0-0.2-0.1-0.3-0.2c-0.3-0.2-0.6-0.3-0.8-0.5c-18.3-9.9-71.9-37-114.2-31.4c-7.6,1-21.6,12.3-33.8,16.3
		c-0.3,0.1-0.7,0.2-1,0.3c-0.3,0.1-0.7,0.2-1,0.3c-1.8,0.5-3.6,0.8-5.4,0.8c-21.8,0-92.1,0-92.1,0s-70.3,0-92.1,0
		c-1.4,0-2.8-0.2-4.3-0.5c-0.3-0.1-0.7-0.1-1-0.2c-0.3-0.1-0.7-0.2-1-0.3l0,0c-12.4-3.6-27-15.6-34.8-16.6
		c-42.2-5.6-95.9,21.5-114.2,31.4c-0.3,0.2-0.6,0.3-0.8,0.5c-0.1,0-0.2,0.1-0.3,0.2c-0.2,0.1-0.3,0.2-0.5,0.3
		c-0.1,0.1-0.2,0.1-0.3,0.2c-0.1,0.1-0.3,0.2-0.5,0.3c-0.1,0-0.2,0.1-0.3,0.2c-0.1,0.1-0.3,0.2-0.4,0.3c-0.1,0.1-0.2,0.1-0.3,0.2
		c-0.1,0.1-0.3,0.2-0.4,0.3c-0.1,0.1-0.2,0.1-0.3,0.2c-0.1,0.1-0.3,0.2-0.4,0.3c-0.1,0.1-0.2,0.1-0.3,0.2c-0.1,0.1-0.3,0.2-0.4,0.3
		c-0.1,0-0.1,0.1-0.2,0.2c-0.1,0.1-0.2,0.2-0.3,0.3c-0.1,0.1-0.1,0.1-0.2,0.2c-0.1,0.1-0.2,0.2-0.3,0.3c0,0.1-0.1,0.1-0.2,0.2
		c-0.1,0.1-0.2,0.2-0.3,0.3c-0.1,0-0.1,0.1-0.2,0.2c-0.1,0.1-0.2,0.2-0.3,0.3c0,0.1-0.1,0.1-0.1,0.2c-0.1,0.1-0.2,0.2-0.3,0.3
		c0,0-0.1,0.1-0.1,0.1c-0.1,0.1-0.2,0.3-0.3,0.4c0,0-0.1,0.1-0.1,0.1c-0.1,0.1-0.2,0.3-0.3,0.4c0,0-0.1,0-0.1,0.1
		c-0.1,0.1-0.2,0.3-0.3,0.4c0,0,0,0,0,0c-0.1,0.2-0.2,0.3-0.3,0.5c0,0,0,0,0,0c-5,7.4-2.2,15.3-10.8,22.9c0,0,0,0-0.1,0
		c33.1-17.9,99.1-38.1,118.7-34.3c9.1,1.8,19.9,12.1,31.1,24.7c0.2,0.3,0.5,0.5,0.7,0.8c0.2,0.3,0.5,0.5,0.7,0.8v0
		c20.2,23.3,41.6,53.3,56.4,53.3c15.1,0,60.5,0,60.5,0s45.4,0,60.5,0c14.9,0,36.2-30,56.4-53.3v0c0.2-0.3,0.5-0.5,0.7-0.8
		c0.2-0.3,0.5-0.5,0.7-0.8v0c11.2-12.7,21.9-23,31-24.7c20-3.9,83.9,16.3,117.4,34.3C633.8,184.4,636.5,176.6,631.6,169.2z
		 M275.1,153.6L275.1,153.6c0.2,0,0.3,0,0.5,0.1C275.5,153.7,275.3,153.7,275.1,153.6z"/>
</g>
<g id="Layer_2">
</g>
<g>
	<path class="st1" d="M275.5,204.1c4.6,5.4,9.1,10.7,13.5,15.4C284.6,214.8,280.1,209.5,275.5,204.1L275.5,204.1z"/>
	<path class="st1" d="M292.7,223.4c0.3,0.3,0.6,0.6,0.8,0.8h0C293.3,223.9,293,223.7,292.7,223.4z"/>
	<path class="st1" d="M292.5,223.2c-1.2-1.2-2.4-2.4-3.5-3.7C290.2,220.8,291.4,222,292.5,223.2z"/>
	<path class="st1" d="M258,183.3c-0.3-0.3-0.5-0.5-0.7-0.8c-4.9-5.5-9.7-10.6-14.3-14.7h0C247.9,172.1,252.9,177.5,258,183.3
		L258,183.3C258,183.3,258,183.3,258,183.3z"/>
	<linearGradient id="SVGID_3_" gradientUnits="userSpaceOnUse" x1="187.6443" y1="157.2821" x2="187.6443" y2="630.26">
		<stop  offset="0" style="stop-color:#239CEC"/>
		<stop  offset="1" style="stop-color:#5A07B4"/>
	</linearGradient>
	<path class="st40" d="M185.6,215.2c12.4,0,24,3.3,34,9h74c-0.3-0.3-0.6-0.6-0.8-0.8c-0.1-0.1-0.1-0.1-0.2-0.2
		c-1.2-1.2-2.4-2.4-3.5-3.7c0,0,0,0,0,0c-4.4-4.7-8.9-10-13.5-15.4H91.6c-2.1,2.7-4.2,6-5.8,9.9c-1.4,3.4-2.7,6.8-4.1,10.2h69.8
		C161.6,218.5,173.2,215.2,185.6,215.2z"/>
	<linearGradient id="SVGID_4_" gradientUnits="userSpaceOnUse" x1="66.5981" y1="157.2821" x2="66.5981" y2="630.26">
		<stop  offset="0" style="stop-color:#239CEC"/>
		<stop  offset="1" style="stop-color:#5A07B4"/>
	</linearGradient>
	<path class="st41" d="M37,390.4c10.7-15.1,31.6-24.9,31.6-24.9s28-55.6,38.7-71.6c2.8-3.7,6.1-7.9,9.8-12.5
		c0.3-8.1,1.9-15.8,4.8-22.9H68.3C40.5,331.5,22,390.5,11.4,437.7c0.9,0.3,1.4,0.6,1.4,0.6S30.3,405.1,37,390.4z"/>
	<linearGradient id="SVGID_5_" gradientUnits="userSpaceOnUse" x1="191.9461" y1="157.2821" x2="191.9461" y2="630.26">
		<stop  offset="0" style="stop-color:#239CEC"/>
		<stop  offset="1" style="stop-color:#5A07B4"/>
	</linearGradient>
	<path class="st42" d="M243,167.8h-74.3c-14.6,4.4-29.7,9.9-42.8,15.5H258C252.9,177.5,247.9,172.1,243,167.8z"/>
	<linearGradient id="SVGID_6_" gradientUnits="userSpaceOnUse" x1="72.1263" y1="157.2821" x2="72.1263" y2="630.26">
		<stop  offset="0" style="stop-color:#239CEC"/>
		<stop  offset="1" style="stop-color:#5A07B4"/>
	</linearGradient>
	<path class="st43" d="M32.4,609.1H108c6.5-6.1,13.4-13,20.5-20.5H15.8C20.7,597,26.4,603.8,32.4,609.1z"/>
	<linearGradient id="SVGID_7_" gradientUnits="userSpaceOnUse" x1="83.23" y1="157.2821" x2="83.23" y2="630.26">
		<stop  offset="0" style="stop-color:#239CEC"/>
		<stop  offset="1" style="stop-color:#5A07B4"/>
	</linearGradient>
	<path class="st44" d="M7,569.1h140.3c5.4-5.7,11-11.3,16.6-16.9H2.7C3.8,558.3,5.2,563.9,7,569.1z"/>
	<path d="M292.7,223.4c-0.1-0.1-0.1-0.1-0.2-0.2C292.6,223.3,292.6,223.3,292.7,223.4z"/>
	<path d="M289,219.5C289,219.5,289,219.5,289,219.5C289,219.5,289,219.5,289,219.5z"/>
	<path class="st45" d="M236.6,162.7c0.4,0.3,0.8,0.6,1.2,0.9C237.4,163.3,237,162.9,236.6,162.7z"/>
	<path class="st45" d="M243,167.8c-1.7-1.5-3.4-2.9-5-4.1C239.7,164.9,241.3,166.3,243,167.8L243,167.8z"/>
	<path class="st45" d="M234.3,161.2c0.7,0.4,1.3,0.8,2,1.3C235.7,162,235,161.6,234.3,161.2z"/>
	<path class="st45" d="M227.8,158.1c0.2,0.1,0.4,0.1,0.5,0.2C228.1,158.2,227.9,158.2,227.8,158.1z"/>
	<path class="st45" d="M229.4,158.7c0.2,0.1,0.4,0.1,0.6,0.2C229.7,158.8,229.5,158.7,229.4,158.7z"/>
	<path class="st45" d="M231.3,159.5c0.3,0.1,0.5,0.3,0.8,0.4C231.8,159.8,231.6,159.6,231.3,159.5z"/>
	<path class="st45" d="M232.9,160.3c0.3,0.2,0.6,0.3,0.9,0.5C233.5,160.6,233.2,160.5,232.9,160.3z"/>
	<path class="st45" d="M238,163.7c-0.1,0-0.1-0.1-0.2-0.1c-0.4-0.3-0.8-0.6-1.2-0.9c-0.1-0.1-0.2-0.1-0.2-0.2
		c-0.7-0.5-1.4-0.9-2-1.3c-0.2-0.1-0.4-0.2-0.6-0.4c-0.3-0.2-0.6-0.3-0.9-0.5c-0.3-0.1-0.5-0.3-0.8-0.4c-0.3-0.1-0.5-0.3-0.8-0.4
		c-0.5-0.2-1-0.4-1.4-0.6c-0.2-0.1-0.4-0.1-0.6-0.2c-0.4-0.1-0.7-0.3-1.1-0.4c-0.2-0.1-0.4-0.1-0.5-0.2c-0.5-0.1-1-0.3-1.5-0.4
		c-10.3-2-33.2,2.6-57.5,10H243C241.3,166.3,239.7,164.9,238,163.7z"/>
	<path class="st45" d="M236.4,162.5c0.1,0.1,0.2,0.1,0.2,0.2C236.5,162.6,236.4,162.5,236.4,162.5z"/>
	<path class="st45" d="M228.3,158.3c0.4,0.1,0.7,0.2,1.1,0.4C229,158.5,228.6,158.4,228.3,158.3z"/>
	<path class="st45" d="M226.2,157.8c0.5,0.1,1,0.2,1.5,0.4C227.2,158,226.7,157.9,226.2,157.8z"/>
	<path class="st45" d="M229.9,158.9c0.5,0.2,0.9,0.4,1.4,0.6C230.9,159.3,230.4,159.1,229.9,158.9z"/>
	<path class="st45" d="M237.9,163.6c0.1,0,0.1,0.1,0.2,0.1C238,163.6,237.9,163.6,237.9,163.6z"/>
	<path class="st45" d="M232.1,159.9c0.3,0.1,0.5,0.3,0.8,0.4C232.6,160.2,232.4,160,232.1,159.9z"/>
	<path class="st45" d="M233.8,160.8c0.2,0.1,0.4,0.2,0.6,0.4C234.2,161.1,234,160.9,233.8,160.8z"/>
	<path class="st45" d="M258.8,184.1L258.8,184.1c-0.3-0.3-0.5-0.5-0.7-0.8h0c5.8,6.6,11.7,13.8,17.5,20.7h0
		C269.9,197.4,264.3,190.5,258.8,184.1z"/>
	<path class="st45" d="M258,183.3H125.9c-6.7,2.9-12.9,5.8-18.3,8.7c-0.4,0.2-0.8,0.4-1.2,0.6c-1.8,0.9-5.1,2.4-8.7,5.3
		c-2,1.6-4.1,3.6-6.1,6.1h183.9C269.7,197.1,263.8,189.9,258,183.3z"/>
	<path class="st45" d="M304.8,233.6c0.4,0.3,0.8,0.5,1.2,0.7C305.6,234.1,305.2,233.9,304.8,233.6z"/>
	<path class="st45" d="M306.4,234.6c0.3,0.2,0.7,0.4,1,0.6C307.1,235,306.8,234.8,306.4,234.6z"/>
	<path class="st45" d="M311.1,236.7c0.3,0.1,0.7,0.2,1,0.3C311.8,236.9,311.4,236.8,311.1,236.7z"/>
	<path class="st45" d="M303,232.4c0.5,0.4,1,0.7,1.5,1C304,233.1,303.5,232.8,303,232.4z"/>
	<path class="st45" d="M313.9,237.3c0.4,0,0.9,0.1,1.3,0.1C314.7,237.4,314.3,237.4,313.9,237.3z"/>
	<path class="st45" d="M309.3,236.1c0.5,0.2,0.9,0.4,1.4,0.5C310.3,236.5,309.8,236.3,309.3,236.1z"/>
	<path class="st45" d="M312.5,237.1c0.3,0.1,0.6,0.1,0.9,0.2C313.2,237.2,312.8,237.2,312.5,237.1z"/>
	<path class="st45" d="M307.9,235.4c0.4,0.2,0.8,0.4,1.2,0.6C308.7,235.8,308.3,235.6,307.9,235.4z"/>
	<path class="st45" d="M294.2,224.8c-0.2-0.2-0.4-0.4-0.6-0.6h0C293.8,224.4,294,224.6,294.2,224.8z"/>
	<path class="st45" d="M294.5,225.2c0.5,0.5,0.9,0.9,1.4,1.3C295.5,226.1,295,225.6,294.5,225.2z"/>
	<path class="st45" d="M301.4,231.3c0.4,0.3,0.8,0.6,1.2,0.9C302.3,231.9,301.9,231.6,301.4,231.3z"/>
	<path class="st45" d="M296.2,226.8c1.1,1,2.2,2,3.2,2.9C298.4,228.7,297.3,227.8,296.2,226.8z"/>
	<path class="st45" d="M299.8,230c0.4,0.3,0.8,0.6,1.2,1C300.6,230.6,300.2,230.3,299.8,230z"/>
	<path class="st45" d="M151.6,224.2H81.7c-4.7,11.8-9.1,23.2-13.4,34.3h53.4C127.5,244,138.1,231.9,151.6,224.2z"/>
	<path class="st45" d="M313.9,237.3c-0.1,0-0.3,0-0.4-0.1c-0.3,0-0.6-0.1-0.9-0.2c-0.1,0-0.3-0.1-0.5-0.1c-0.3-0.1-0.7-0.2-1-0.3
		c-0.1,0-0.2-0.1-0.4-0.1c-0.5-0.2-0.9-0.3-1.4-0.5c-0.1,0-0.1-0.1-0.2-0.1c-0.4-0.2-0.8-0.4-1.2-0.6c-0.1-0.1-0.3-0.2-0.4-0.2
		c-0.3-0.2-0.7-0.4-1-0.6c-0.2-0.1-0.3-0.2-0.5-0.3c-0.4-0.2-0.8-0.5-1.2-0.7c-0.1-0.1-0.2-0.1-0.3-0.2c-0.5-0.3-1-0.7-1.5-1
		c-0.1-0.1-0.2-0.1-0.3-0.2c-0.4-0.3-0.8-0.6-1.2-0.9c-0.1-0.1-0.3-0.2-0.4-0.3c-0.4-0.3-0.8-0.6-1.2-1c-0.1-0.1-0.3-0.2-0.4-0.3
		c-1.1-0.9-2.1-1.8-3.2-2.9c-0.1-0.1-0.2-0.2-0.3-0.3c-0.5-0.4-0.9-0.9-1.4-1.3c-0.1-0.1-0.2-0.2-0.4-0.3c-0.2-0.2-0.4-0.4-0.6-0.6
		h-74c13.4,7.7,24,19.8,29.8,34.3h132.8c-5.3-7.3-11-14.4-16.9-21.1c-14.3,0-39.6,0-50.1,0C314.7,237.4,314.3,237.4,313.9,237.3z"/>
	<path class="st45" d="M312.1,237c0.2,0,0.3,0.1,0.5,0.1C312.4,237.1,312.2,237.1,312.1,237z"/>
	<path class="st45" d="M313.5,237.3c0.1,0,0.3,0,0.4,0.1C313.7,237.3,313.6,237.3,313.5,237.3z"/>
	<path class="st45" d="M301,230.9c0.1,0.1,0.3,0.2,0.4,0.3C301.3,231.1,301.2,231,301,230.9z"/>
	<path class="st45" d="M294.2,224.8c0.1,0.1,0.2,0.2,0.4,0.3C294.4,225.1,294.3,225,294.2,224.8z"/>
	<path class="st45" d="M299.4,229.6c0.1,0.1,0.3,0.2,0.4,0.3C299.7,229.8,299.6,229.7,299.4,229.6z"/>
	<path class="st45" d="M295.9,226.5c0.1,0.1,0.2,0.2,0.3,0.3C296.1,226.7,296,226.6,295.9,226.5z"/>
	<path class="st45" d="M302.7,232.2c0.1,0.1,0.2,0.1,0.3,0.2C302.9,232.3,302.8,232.3,302.7,232.2z"/>
	<path class="st45" d="M309.1,236c0.1,0,0.1,0.1,0.2,0.1C309.3,236.1,309.2,236,309.1,236z"/>
	<path class="st45" d="M306,234.4c0.2,0.1,0.3,0.2,0.5,0.3C306.3,234.6,306.1,234.5,306,234.4z"/>
	<path class="st45" d="M304.5,233.5c0.1,0.1,0.2,0.1,0.3,0.2C304.7,233.6,304.6,233.5,304.5,233.5z"/>
	<path class="st45" d="M310.7,236.6c0.1,0,0.2,0.1,0.4,0.1C311,236.7,310.8,236.7,310.7,236.6z"/>
	<path class="st45" d="M307.5,235.2c0.1,0.1,0.3,0.2,0.4,0.2C307.8,235.4,307.6,235.3,307.5,235.2z"/>
	<path class="st46" d="M76.9,630.3c8.6-2,19.2-10,31.1-21.1H32.4C53.4,628.1,76.9,630.3,76.9,630.3z"/>
	<path class="st46" d="M15.8,588.7h112.7c6.1-6.3,12.3-12.9,18.7-19.5H7C9.4,576.5,12.4,583,15.8,588.7z"/>
	<path class="st46" d="M333,463.3c-2.4-7.9-5-15.6-7.6-22.9c-11.3,13.8-28.4,22.6-47.7,22.6c-34,0-61.6-27.6-61.6-61.6
		c0-10.4,2.6-20.2,7.2-28.8c-11.7,3.2-20.8,4-21.5,6.2c-0.8,2.3-25.2,43-25.2,43s8.1-50.4,19.4-66.3c2.3-2.2,4.2-3.8,5.9-5.1
		c-5.2,1.3-10.7,2-16.3,2c-18.5,0-35.3-7.4-47.7-19.3c-8.5,9.7-22.9,25.5-27.2,41.4c-5.4,19.8-15.9,39.1-20.5,52.7
		c-4.6,13.6-24.4,50.4-34.5,55c-0.4-14.3-13.6-38.8-13.6-38.8s-8.5,22.9-18.2,32.2l-12,9.3c0,0-3.6-5.8-7.9-7.9
		C1,497-0.1,514.2,0.3,529c0.3,8.4,1.1,16.1,2.4,23.2h161.1c27.4-27.2,56.2-51,81.5-51c22.6,0,80.5,0,110.7,0
		c-4.2-13.2-8.3-23.2-8.3-23.2S341,472.7,333,463.3z"/>
	<path class="st46" d="M273,340c-7.8-10.6-14.4-18.2-19-23c-1,2.5-8.8,22.8-17.1,38.3C246.6,346.7,259.2,341.1,273,340z"/>
	<path class="st47" d="M11.9,485l12-9.3c9.7-9.3,18.2-32.2,18.2-32.2s13.2,24.4,13.6,38.8c10.1-4.7,29.8-41.5,34.5-55
		c4.7-13.6,15.1-32.9,20.5-52.7c4.4-15.9,18.7-31.8,27.2-41.4c-12.9-12.5-21-30-21-49.3c0-0.8,0-1.6,0.1-2.3
		c-3.7,4.6-7,8.9-9.8,12.5c-10.7,16-38.7,71.6-38.7,71.6s-20.9,9.8-31.6,24.9c-6.7,14.7-24.2,47.9-24.2,47.9s-0.5-0.3-1.4-0.6
		C8.3,451.9,5.8,465,4,477.1C8.3,479.2,11.9,485,11.9,485z"/>
	<path class="st47" d="M254,317.1c0.1-0.2,0.1-0.3,0.1-0.3s-0.7-0.6-1.8-1.4C252.8,315.9,253.4,316.5,254,317.1z"/>
	<path class="st47" d="M201.9,350.5c-1.7,1.2-3.6,2.9-5.9,5.1c-11.2,15.9-19.4,66.3-19.4,66.3s24.4-40.7,25.2-43
		c0.7-2.2,9.8-3,21.5-6.2c3.5-6.5,8.1-12.4,13.6-17.2c8.4-15.5,16.2-35.7,17.1-38.3c-0.6-0.6-1.2-1.2-1.7-1.7
		c-0.1-0.1-0.2-0.2-0.3-0.3c-1.7-1.7-3-2.8-3.7-3.3C239.7,330.9,222.6,345.4,201.9,350.5z"/>
	<path class="st48" d="M690.8,320c-1.4-1.9-3.2-11.3-3.2-11.3s-1.8,9.5-3.2,11.3s-9.9,3.5-9.9,3.5s8.6,1.6,9.9,3.5
		s3.2,11.3,3.2,11.3s1.8-9.5,3.2-11.3c1.4-1.9,9.9-3.5,9.9-3.5S692.1,321.9,690.8,320z"/>
	<path class="st48" d="M514.8,195.2c-1.4-1.9-3.2-11.3-3.2-11.3s-1.8,9.5-3.2,11.3c-1.4,1.9-9.9,3.5-9.9,3.5s8.6,1.6,9.9,3.5
		c1.4,1.9,3.2,11.3,3.2,11.3s1.8-9.5,3.2-11.3c1.4-1.9,9.9-3.5,9.9-3.5S516.1,197.1,514.8,195.2z"/>
	<path class="st48" d="M454.2,305.2c-1.4-1.9-3.2-11.3-3.2-11.3s-1.8,9.5-3.2,11.3c-1.4,1.9-9.9,3.5-9.9,3.5s8.6,1.6,9.9,3.5
		c1.4,1.9,3.2,11.3,3.2,11.3s1.8-9.5,3.2-11.3c1.4-1.9,9.9-3.5,9.9-3.5S455.6,307.1,454.2,305.2z"/>
	<path class="st48" d="M353,330.5c-1.4-1.9-3.2-11.3-3.2-11.3s-1.8,9.5-3.2,11.3c-1.4,1.9-9.9,3.5-9.9,3.5s8.6,1.6,9.9,3.5
		c1.4,1.9,3.2,11.3,3.2,11.3s1.8-9.5,3.2-11.3c1.4-1.9,9.9-3.5,9.9-3.5S354.4,332.4,353,330.5z"/>
	<path class="st48" d="M320,475.3c-1.4-1.9-3.2-11.3-3.2-11.3s-1.8,9.5-3.2,11.3c-1.4,1.9-9.9,3.5-9.9,3.5s8.6,1.6,9.9,3.5
		c1.4,1.9,3.2,11.3,3.2,11.3s1.8-9.5,3.2-11.3c1.4-1.9,9.9-3.5,9.9-3.5S321.3,477.1,320,475.3z"/>
</g>
</svg>
